<svg width="720" height="720" viewBox="0 0 720 720" fill="none" xmlns="http://www.w3.org/2000/svg" role="img" aria-labelledby="title desc">
  <title id="title">Jamie inspired learning avatar</title>
  <desc id="desc">A friendly illustrated child in a green school shirt painting beside a visual schedule board.</desc>
  <rect width="720" height="720" rx="72" fill="#F7FBF8"/>
  <path d="M70 570C126 474 244 410 360 410C476 410 594 474 650 570V650H70V570Z" fill="#DDEFE5"/>
  <rect x="82" y="92" width="214" height="418" rx="20" fill="#FFFDF8" stroke="#173047" stroke-width="12"/>
  <path d="M119 158H257M119 222H257M119 286H257" stroke="#D8E1EA" stroke-width="14" stroke-linecap="round"/>
  <rect x="120" y="342" width="54" height="54" rx="10" fill="#F7C95F" stroke="#173047" stroke-width="8"/>
  <rect x="202" y="342" width="54" height="54" rx="10" fill="#8ED6C3" stroke="#173047" stroke-width="8"/>
  <path d="M123 448C143 421 170 421 190 448C210 475 237 475 257 448" stroke="#EE8D78" stroke-width="16" stroke-linecap="round"/>
  <path d="M115 538L280 108" stroke="#173047" stroke-width="10" stroke-linecap="round"/>
  <path d="M266 538L101 108" stroke="#173047" stroke-width="10" stroke-linecap="round"/>
  <path d="M430 450C421 478 407 497 386 508C366 497 352 478 343 450H430Z" fill="#F2BE9D" stroke="#173047" stroke-width="10" stroke-linejoin="round"/>
  <path d="M281 626C287 548 321 496 386 496C451 496 485 548 491 626H281Z" fill="#0F6D4D" stroke="#173047" stroke-width="12" stroke-linejoin="round"/>
  <path d="M310 545C346 565 425 565 461 545" stroke="#FFFFFF" stroke-width="16" stroke-linecap="round"/>
  <path d="M288 626C296 584 319 557 347 542" stroke="#FFFFFF" stroke-width="10" stroke-linecap="round"/>
  <path d="M484 626C476 584 453 557 425 542" stroke="#FFFFFF" stroke-width="10" stroke-linecap="round"/>
  <circle cx="386" cy="318" r="114" fill="#F2BE9D" stroke="#173047" stroke-width="12"/>
  <path d="M278 292C281 210 324 158 392 158C456 158 500 208 501 293C471 257 434 246 389 251C345 256 312 268 278 292Z" fill="#1B2028" stroke="#173047" stroke-width="12" stroke-linejoin="round"/>
  <path d="M311 244C332 211 366 190 413 190" stroke="#343B45" stroke-width="14" stroke-linecap="round"/>
  <circle cx="335" cy="323" r="9" fill="#173047"/>
  <circle cx="433" cy="323" r="9" fill="#173047"/>
  <path d="M358 374C376 386 400 386 418 374" stroke="#173047" stroke-width="9" stroke-linecap="round"/>
  <path d="M326 420C356 444 417 444 447 420" stroke="#173047" stroke-width="10" stroke-linecap="round"/>
  <path d="M280 566C241 550 221 512 232 478C238 459 258 451 277 460L324 484L303 544L280 566Z" fill="#F2BE9D" stroke="#173047" stroke-width="10" stroke-linejoin="round"/>
  <path d="M492 566C531 550 551 512 540 478C534 459 514 451 495 460L448 484L469 544L492 566Z" fill="#F2BE9D" stroke="#173047" stroke-width="10" stroke-linejoin="round"/>
  <rect x="505" y="142" width="112" height="300" rx="22" fill="#FFFFFF" stroke="#173047" stroke-width="12"/>
  <path d="M538 182V402" stroke="#173047" stroke-width="10" stroke-linecap="round"/>
  <path d="M584 184C566 224 610 248 584 289C566 317 600 344 580 393" stroke="#76AEE8" stroke-width="18" stroke-linecap="round"/>
  <path d="M533 206C562 207 569 235 548 253C532 266 528 290 552 304C580 320 575 352 548 364" stroke="#74B88A" stroke-width="16" stroke-linecap="round"/>
  <circle cx="566" cy="238" r="12" fill="#F7C95F" stroke="#173047" stroke-width="6"/>
  <circle cx="564" cy="336" r="12" fill="#EE8D78" stroke="#173047" stroke-width="6"/>
  <path d="M479 495C508 490 531 471 550 438" stroke="#173047" stroke-width="10" stroke-linecap="round"/>
  <path d="M550 438L575 392" stroke="#815F3C" stroke-width="12" stroke-linecap="round"/>
  <path d="M176 610H597" stroke="#173047" stroke-width="12" stroke-linecap="round"/>
  <path d="M508 132L542 101L560 142" stroke="#F7C95F" stroke-width="14" stroke-linecap="round" stroke-linejoin="round"/>
</svg>
