<svg width="1200" height="900" viewBox="0 0 1200 900" fill="none" xmlns="http://www.w3.org/2000/svg">
  <rect width="1200" height="900" rx="46" fill="#FFFDF7"/>
  <rect x="32" y="32" width="1136" height="836" rx="34" fill="url(#paint0_linear)" stroke="#CFE2FF"/>
  <circle cx="272" cy="220" r="118" fill="#4F9DFF" fill-opacity="0.18"/>
  <circle cx="936" cy="236" r="132" fill="#FFB562" fill-opacity="0.18"/>
  <circle cx="920" cy="652" r="168" fill="#4BCFA5" fill-opacity="0.16"/>
  <path d="M130 650C272 590 354 500 438 414C522 328 612 248 736 218C860 188 970 220 1080 306" stroke="#4F9DFF" stroke-width="16" stroke-linecap="round"/>
  <path d="M136 718C270 700 360 654 456 562C552 470 638 382 758 368C878 354 970 412 1064 520" stroke="#4BCFA5" stroke-width="14" stroke-linecap="round"/>
  <path d="M154 566C264 514 340 434 408 332C476 230 586 148 716 148C846 148 972 216 1046 316" stroke="#FFB562" stroke-width="12" stroke-linecap="round"/>
  <circle cx="276" cy="594" r="26" fill="#4F9DFF"/>
  <circle cx="458" cy="432" r="26" fill="#4BCFA5"/>
  <circle cx="640" cy="280" r="26" fill="#FFB562"/>
  <circle cx="858" cy="252" r="26" fill="#FF8575"/>
  <circle cx="998" cy="420" r="26" fill="#5264FF"/>
  <g opacity="0.82">
    <rect x="124" y="104" width="244" height="118" rx="24" fill="#FFFFFF" stroke="#DCEBFF"/>
    <rect x="814" y="628" width="264" height="128" rx="24" fill="#FFFFFF" stroke="#DCEBFF"/>
    <rect x="486" y="644" width="234" height="96" rx="22" fill="#FFFFFF" stroke="#DCEBFF"/>
  </g>
  <g stroke="#DCE7F4">
    <path d="M108 120H1092"/>
    <path d="M108 220H1092"/>
    <path d="M108 320H1092"/>
    <path d="M108 420H1092"/>
    <path d="M108 520H1092"/>
    <path d="M108 620H1092"/>
    <path d="M108 720H1092"/>
    <path d="M188 120V780"/>
    <path d="M328 120V780"/>
    <path d="M468 120V780"/>
    <path d="M608 120V780"/>
    <path d="M748 120V780"/>
    <path d="M888 120V780"/>
  </g>
  <defs>
    <linearGradient id="paint0_linear" x1="86" y1="72" x2="1104" y2="828" gradientUnits="userSpaceOnUse">
      <stop stop-color="#F9FBFF"/>
      <stop offset="0.54" stop-color="#FEFCF5"/>
      <stop offset="1" stop-color="#F4FAFF"/>
    </linearGradient>
  </defs>
</svg>
