<svg width="560" height="420" viewBox="0 0 560 420" fill="none" xmlns="http://www.w3.org/2000/svg">
  <rect width="560" height="420" rx="28" fill="#0A1420" />
  <rect x="24" y="24" width="512" height="372" rx="24" fill="#102233" stroke="rgba(255,255,255,0.08)" />
  <rect x="56" y="84" width="448" height="252" rx="22" fill="rgba(255,255,255,0.04)" />
  <g opacity="0.6">
    <path d="M110 130H454" stroke="rgba(255,255,255,0.08)" />
    <path d="M110 178H454" stroke="rgba(255,255,255,0.08)" />
    <path d="M110 226H454" stroke="rgba(255,255,255,0.08)" />
    <path d="M110 274H454" stroke="rgba(255,255,255,0.08)" />
  </g>
  <rect x="86" y="112" width="62" height="32" rx="12" fill="rgba(93,217,255,0.14)" />
  <rect x="170" y="112" width="62" height="32" rx="12" fill="rgba(135,255,193,0.14)" />
  <rect x="254" y="112" width="62" height="32" rx="12" fill="rgba(255,182,123,0.14)" />
  <rect x="338" y="112" width="62" height="32" rx="12" fill="rgba(93,217,255,0.14)" />
  <rect x="422" y="112" width="62" height="32" rx="12" fill="rgba(135,255,193,0.14)" />
  <path d="M117 128L199 190" stroke="rgba(93,217,255,0.42)" stroke-width="2" />
  <path d="M117 128L283 238" stroke="rgba(93,217,255,0.24)" stroke-width="2" />
  <path d="M201 128L365 286" stroke="rgba(135,255,193,0.26)" stroke-width="2" />
  <path d="M285 128L449 190" stroke="rgba(255,182,123,0.4)" stroke-width="2" />
  <path d="M369 128L449 286" stroke="rgba(93,217,255,0.26)" stroke-width="2" />
  <path d="M453 128L285 286" stroke="rgba(135,255,193,0.26)" stroke-width="2" />
  <circle cx="199" cy="190" r="12" fill="#5DD9FF" />
  <circle cx="283" cy="238" r="12" fill="#87FFC1" />
  <circle cx="365" cy="286" r="12" fill="#FFB67B" />
  <circle cx="449" cy="190" r="12" fill="#5DD9FF" />
  <circle cx="449" cy="286" r="12" fill="#87FFC1" />
  <text x="56" y="50" fill="#F2F7FB" font-family="IBM Plex Mono, monospace" font-size="18">ATTENTION AND CONTEXT</text>
</svg>
