<svg width="1200" height="900" viewBox="0 0 1200 900" fill="none" xmlns="http://www.w3.org/2000/svg">
  <rect width="1200" height="900" rx="44" fill="#09131C"/>
  <rect x="34" y="34" width="1132" height="832" rx="34" fill="url(#paint0_linear)" stroke="#FFFFFF" stroke-opacity="0.12"/>
  <circle cx="608" cy="430" r="252" fill="url(#paint1_radial)" opacity="0.94"/>
  <circle cx="608" cy="430" r="180" fill="#07121B" fill-opacity="0.76" stroke="#FFFFFF" stroke-opacity="0.18"/>
  <circle cx="608" cy="430" r="104" fill="#5DD9FF" fill-opacity="0.12" stroke="#5DD9FF" stroke-opacity="0.45"/>
  <path d="M232 430C320 350 444 312 608 312C772 312 896 350 984 430C896 510 772 548 608 548C444 548 320 510 232 430Z" stroke="#87FFC1" stroke-width="18" stroke-linejoin="round"/>
  <path d="M334 276C406 232 498 208 608 208C718 208 810 232 882 276" stroke="#FFFFFF" stroke-opacity="0.22" stroke-width="10" stroke-linecap="round"/>
  <path d="M334 584C406 628 498 652 608 652C718 652 810 628 882 584" stroke="#FFFFFF" stroke-opacity="0.18" stroke-width="10" stroke-linecap="round"/>
  <g opacity="0.82">
    <circle cx="260" cy="244" r="10" fill="#5DD9FF"/>
    <circle cx="332" cy="214" r="6" fill="#87FFC1"/>
    <circle cx="944" cy="242" r="8" fill="#FFB67B"/>
    <circle cx="980" cy="618" r="10" fill="#5DD9FF"/>
    <circle cx="236" cy="640" r="8" fill="#FF8F7A"/>
  </g>
  <g stroke="#FFFFFF" stroke-opacity="0.10">
    <path d="M122 120H1078"/>
    <path d="M122 220H1078"/>
    <path d="M122 320H1078"/>
    <path d="M122 420H1078"/>
    <path d="M122 520H1078"/>
    <path d="M122 620H1078"/>
    <path d="M122 720H1078"/>
    <path d="M202 120V780"/>
    <path d="M342 120V780"/>
    <path d="M482 120V780"/>
    <path d="M622 120V780"/>
    <path d="M762 120V780"/>
    <path d="M902 120V780"/>
  </g>
  <rect x="144" y="686" width="212" height="90" rx="24" fill="#FFFFFF" fill-opacity="0.05" stroke="#FFFFFF" stroke-opacity="0.12"/>
  <rect x="846" y="144" width="196" height="82" rx="22" fill="#FFFFFF" fill-opacity="0.05" stroke="#FFFFFF" stroke-opacity="0.12"/>
  <defs>
    <linearGradient id="paint0_linear" x1="154" y1="84" x2="1048" y2="808" gradientUnits="userSpaceOnUse">
      <stop stop-color="#101C27"/>
      <stop offset="0.5" stop-color="#0B1620"/>
      <stop offset="1" stop-color="#08111A"/>
    </linearGradient>
    <radialGradient id="paint1_radial" cx="0" cy="0" r="1" gradientUnits="userSpaceOnUse" gradientTransform="translate(608 430) rotate(90) scale(252)">
      <stop stop-color="#5DD9FF"/>
      <stop offset="0.44" stop-color="#87FFC1"/>
      <stop offset="0.76" stop-color="#FFB67B"/>
      <stop offset="1" stop-color="#0A121A" stop-opacity="0"/>
    </radialGradient>
  </defs>
</svg>
