<svg width="1200" height="900" viewBox="0 0 1200 900" fill="none" xmlns="http://www.w3.org/2000/svg">
  <rect width="1200" height="900" rx="44" fill="#0B1722"/>
  <rect x="28" y="28" width="1144" height="844" rx="32" fill="url(#paint0_radial)" stroke="#FFFFFF" stroke-opacity="0.12"/>
  <path d="M116 554C204 452 292 404 380 410C468 416 542 484 636 492C730 500 794 436 864 380C934 324 1002 276 1086 284" stroke="#5DD9FF" stroke-width="20" stroke-linecap="round"/>
  <path d="M116 638C188 596 264 568 346 574C428 580 506 620 590 622C674 624 750 586 832 526C914 466 1000 396 1084 394" stroke="#87FFC1" stroke-width="16" stroke-linecap="round" opacity="0.92"/>
  <path d="M170 300C244 248 324 230 410 250C496 270 554 340 626 356C698 372 768 334 846 278C924 222 996 170 1068 176" stroke="#FFB67B" stroke-width="14" stroke-linecap="round" opacity="0.88"/>
  <rect x="112" y="118" width="244" height="120" rx="24" fill="#FFFFFF" fill-opacity="0.06" stroke="#FFFFFF" stroke-opacity="0.12"/>
  <rect x="846" y="602" width="246" height="144" rx="28" fill="#FFFFFF" fill-opacity="0.05" stroke="#FFFFFF" stroke-opacity="0.12"/>
  <rect x="862" y="618" width="214" height="82" rx="18" fill="#5DD9FF" fill-opacity="0.10"/>
  <circle cx="932" cy="189" r="86" fill="url(#paint1_radial)" opacity="0.9"/>
  <circle cx="932" cy="189" r="48" fill="#09131C" stroke="#FFFFFF" stroke-opacity="0.18"/>
  <circle cx="932" cy="189" r="8" fill="#5DD9FF"/>
  <circle cx="182" cy="706" r="64" fill="rgba(255,143,122,0.16)"/>
  <circle cx="182" cy="706" r="22" fill="#FF8F7A"/>
  <g opacity="0.72">
    <rect x="140" y="146" width="70" height="18" rx="9" fill="#87FFC1"/>
    <rect x="140" y="178" width="152" height="14" rx="7" fill="#FFFFFF" fill-opacity="0.18"/>
    <rect x="140" y="204" width="126" height="14" rx="7" fill="#FFFFFF" fill-opacity="0.12"/>
  </g>
  <defs>
    <radialGradient id="paint0_radial" cx="0" cy="0" r="1" gradientUnits="userSpaceOnUse" gradientTransform="translate(838 172) rotate(128.399) scale(756.664 898.266)">
      <stop stop-color="#142736"/>
      <stop offset="0.58" stop-color="#0C1823"/>
      <stop offset="1" stop-color="#08111A"/>
    </radialGradient>
    <radialGradient id="paint1_radial" cx="0" cy="0" r="1" gradientUnits="userSpaceOnUse" gradientTransform="translate(932 189) rotate(90) scale(86)">
      <stop stop-color="#87FFC1"/>
      <stop offset="0.54" stop-color="#5DD9FF"/>
      <stop offset="1" stop-color="#0E2635" stop-opacity="0"/>
    </radialGradient>
  </defs>
</svg>
